<?xml version="1.0" encoding="utf-8" standalone="no"?>
<!DOCTYPE svg PUBLIC "-//W3C//DTD SVG 1.1//EN"
  "http://www.w3.org/Graphics/SVG/1.1/DTD/svg11.dtd">
<svg xmlns:xlink="http://www.w3.org/1999/xlink" width="618.857344pt" height="392.377969pt" viewBox="0 0 618.857344 392.377969" xmlns="http://www.w3.org/2000/svg" version="1.1">
 <metadata>
  <rdf:RDF xmlns:dc="http://purl.org/dc/elements/1.1/" xmlns:cc="http://creativecommons.org/ns#" xmlns:rdf="http://www.w3.org/1999/02/22-rdf-syntax-ns#">
   <cc:Work>
    <dc:type rdf:resource="http://purl.org/dc/dcmitype/StillImage"/>
    <dc:date>2026-05-19T23:55:09.557020</dc:date>
    <dc:format>image/svg+xml</dc:format>
    <dc:creator>
     <cc:Agent>
      <dc:title>Matplotlib v3.10.9, https://matplotlib.org/</dc:title>
     </cc:Agent>
    </dc:creator>
   </cc:Work>
  </rdf:RDF>
 </metadata>
 <defs>
  <style type="text/css">*{stroke-linejoin: round; stroke-linecap: butt}</style>
 </defs>
 <g id="figure_1">
  <g id="patch_1">
   <path d="M 0 392.377969 
L 618.857344 392.377969 
L 618.857344 0 
L 0 0 
z
" style="fill: #ffffff"/>
  </g>
  <g id="axes_1">
   <g id="patch_2">
    <path d="M 39.815156 317.724656 
L 611.657344 317.724656 
L 611.657344 31.077969 
L 39.815156 31.077969 
z
" style="fill: #ffffff"/>
   </g>
   <g id="line2d_1">
    <path d="M 63.31552 67.413464 
L 65.583895 67.536774 
L 68.305945 67.943711 
L 71.027995 68.599867 
L 73.750045 69.488847 
L 76.472094 70.600141 
L 79.194144 71.926072 
L 82.369869 73.736314 
L 85.545594 75.822853 
L 88.721319 78.179344 
L 91.897044 80.800416 
L 95.072769 83.681422 
L 98.702168 87.287071 
L 102.331568 91.221513 
L 105.960968 95.47996 
L 109.590368 100.058112 
L 113.673443 105.585839 
L 117.756518 111.508223 
L 121.839592 117.820671 
L 125.922667 124.51897 
L 130.459417 132.409346 
L 134.996167 140.766363 
L 139.532916 149.585461 
L 144.069666 158.862404 
L 149.060091 169.591137 
L 154.050516 180.864159 
L 159.040941 192.676869 
L 164.48504 206.173903 
L 169.92914 220.302807 
L 175.37324 235.058629 
L 180.817339 250.436701 
L 180.817339 250.436701 
" clip-path="url(#pdf7afcd762)" style="fill: none; stroke-dasharray: 6.5,3.9; stroke-dashoffset: 0; stroke: #888888; stroke-width: 1.3"/>
   </g>
   <g id="matplotlib.axis_1">
    <g id="xtick_1">
     <g id="line2d_2">
      <defs>
       <path id="m6257bfbe3c" d="M 0 0 
L 0 -4 
" style="stroke: #333333; stroke-width: 0.8"/>
      </defs>
      <g>
       <use xlink:href="#m6257bfbe3c" x="43.731884" y="317.724656" style="fill: #333333; stroke: #333333; stroke-width: 0.8"/>
      </g>
     </g>
     <g id="text_1">
      <!-- 0 -->
      <g style="fill: #333333" transform="translate(40.868759 328.06325) scale(0.09 -0.09)">
       <defs>
        <path id="DejaVuSerif-30" d="M 2034 219 
Q 2513 219 2750 744 
Q 2988 1269 2988 2328 
Q 2988 3391 2750 3916 
Q 2513 4441 2034 4441 
Q 1556 4441 1318 3916 
Q 1081 3391 1081 2328 
Q 1081 1269 1318 744 
Q 1556 219 2034 219 
z
M 2034 -91 
Q 1275 -91 848 546 
Q 422 1184 422 2328 
Q 422 3475 848 4112 
Q 1275 4750 2034 4750 
Q 2797 4750 3222 4112 
Q 3647 3475 3647 2328 
Q 3647 1184 3222 546 
Q 2797 -91 2034 -91 
z
" transform="scale(0.015625)"/>
       </defs>
       <use xlink:href="#DejaVuSerif-30"/>
      </g>
     </g>
    </g>
    <g id="xtick_2">
     <g id="line2d_3">
      <g>
       <use xlink:href="#m6257bfbe3c" x="122.06643" y="317.724656" style="fill: #333333; stroke: #333333; stroke-width: 0.8"/>
      </g>
     </g>
     <g id="text_2">
      <!-- 1x -->
      <g style="fill: #333333" transform="translate(116.665727 328.06325) scale(0.09 -0.09)">
       <defs>
        <path id="DejaVuSerif-31" d="M 909 0 
L 909 331 
L 1722 331 
L 1722 4213 
L 781 3603 
L 781 4013 
L 1919 4750 
L 2350 4750 
L 2350 331 
L 3163 331 
L 3163 0 
L 909 0 
z
" transform="scale(0.015625)"/>
        <path id="DejaVuSerif-78" d="M 1863 2028 
L 2559 2988 
L 2113 2988 
L 2113 3322 
L 3391 3322 
L 3391 2988 
L 2950 2988 
L 2059 1759 
L 3097 331 
L 3531 331 
L 3531 0 
L 1997 0 
L 1997 331 
L 2419 331 
L 1697 1325 
L 972 331 
L 1403 331 
L 1403 0 
L 141 0 
L 141 331 
L 581 331 
L 1497 1594 
L 488 2988 
L 78 2988 
L 78 3322 
L 1563 3322 
L 1563 2988 
L 1166 2988 
L 1863 2028 
z
" transform="scale(0.015625)"/>
       </defs>
       <use xlink:href="#DejaVuSerif-31"/>
       <use xlink:href="#DejaVuSerif-78" transform="translate(63.623047 0)"/>
      </g>
     </g>
    </g>
    <g id="xtick_3">
     <g id="line2d_4">
      <g>
       <use xlink:href="#m6257bfbe3c" x="278.735522" y="317.724656" style="fill: #333333; stroke: #333333; stroke-width: 0.8"/>
      </g>
     </g>
     <g id="text_3">
      <!-- 3x -->
      <g style="fill: #333333" transform="translate(273.334819 328.06325) scale(0.09 -0.09)">
       <defs>
        <path id="DejaVuSerif-33" d="M 622 4469 
Q 988 4606 1323 4678 
Q 1659 4750 1953 4750 
Q 2638 4750 3022 4454 
Q 3406 4159 3406 3634 
Q 3406 3213 3140 2930 
Q 2875 2647 2388 2547 
Q 2963 2466 3280 2130 
Q 3597 1794 3597 1259 
Q 3597 606 3158 257 
Q 2719 -91 1894 -91 
Q 1528 -91 1179 -12 
Q 831 66 488 225 
L 488 1131 
L 838 1131 
Q 869 681 1141 450 
Q 1413 219 1906 219 
Q 2384 219 2661 495 
Q 2938 772 2938 1253 
Q 2938 1803 2653 2086 
Q 2369 2369 1819 2369 
L 1522 2369 
L 1522 2688 
L 1678 2688 
Q 2225 2688 2498 2914 
Q 2772 3141 2772 3597 
Q 2772 4006 2547 4223 
Q 2322 4441 1900 4441 
Q 1478 4441 1245 4241 
Q 1013 4041 972 3647 
L 622 3647 
L 622 4469 
z
" transform="scale(0.015625)"/>
       </defs>
       <use xlink:href="#DejaVuSerif-33"/>
       <use xlink:href="#DejaVuSerif-78" transform="translate(63.623047 0)"/>
      </g>
     </g>
    </g>
    <g id="xtick_4">
     <g id="line2d_5">
      <g>
       <use xlink:href="#m6257bfbe3c" x="435.404615" y="317.724656" style="fill: #333333; stroke: #333333; stroke-width: 0.8"/>
      </g>
     </g>
     <g id="text_4">
      <!-- 5x -->
      <g style="fill: #333333" transform="translate(430.003912 328.06325) scale(0.09 -0.09)">
       <defs>
        <path id="DejaVuSerif-35" d="M 3219 4666 
L 3219 4153 
L 1081 4153 
L 1081 2816 
Q 1244 2928 1461 2984 
Q 1678 3041 1947 3041 
Q 2703 3041 3140 2622 
Q 3578 2203 3578 1478 
Q 3578 738 3136 323 
Q 2694 -91 1894 -91 
Q 1572 -91 1234 -12 
Q 897 66 544 225 
L 544 1131 
L 897 1131 
Q 925 688 1179 453 
Q 1434 219 1894 219 
Q 2388 219 2653 544 
Q 2919 869 2919 1478 
Q 2919 2084 2655 2407 
Q 2391 2731 1894 2731 
Q 1613 2731 1398 2631 
Q 1184 2531 1019 2322 
L 750 2322 
L 750 4666 
L 3219 4666 
z
" transform="scale(0.015625)"/>
       </defs>
       <use xlink:href="#DejaVuSerif-35"/>
       <use xlink:href="#DejaVuSerif-78" transform="translate(63.623047 0)"/>
      </g>
     </g>
    </g>
    <g id="xtick_5">
     <g id="line2d_6">
      <g>
       <use xlink:href="#m6257bfbe3c" x="592.073707" y="317.724656" style="fill: #333333; stroke: #333333; stroke-width: 0.8"/>
      </g>
     </g>
     <g id="text_5">
      <!-- 7x -->
      <g style="fill: #333333" transform="translate(586.673004 328.06325) scale(0.09 -0.09)">
       <defs>
        <path id="DejaVuSerif-37" d="M 3609 4347 
L 1784 0 
L 1319 0 
L 3059 4153 
L 903 4153 
L 903 3578 
L 538 3578 
L 538 4666 
L 3609 4666 
L 3609 4347 
z
" transform="scale(0.015625)"/>
       </defs>
       <use xlink:href="#DejaVuSerif-37"/>
       <use xlink:href="#DejaVuSerif-78" transform="translate(63.623047 0)"/>
      </g>
     </g>
    </g>
    <g id="text_6">
     <!-- Output volume (pre-AI baseline = 1x) -->
     <g transform="translate(221.166641 342.29325) scale(0.11 -0.11)">
      <defs>
       <path id="DejaVuSerif-4f" d="M 2625 244 
Q 3391 244 3781 770 
Q 4172 1297 4172 2328 
Q 4172 3363 3781 3889 
Q 3391 4416 2625 4416 
Q 1856 4416 1465 3889 
Q 1075 3363 1075 2328 
Q 1075 1297 1465 770 
Q 1856 244 2625 244 
z
M 2625 -91 
Q 2150 -91 1751 65 
Q 1353 222 1050 525 
Q 700 875 529 1319 
Q 359 1763 359 2328 
Q 359 2894 529 3339 
Q 700 3784 1050 4134 
Q 1356 4441 1750 4595 
Q 2144 4750 2625 4750 
Q 3641 4750 4266 4084 
Q 4891 3419 4891 2328 
Q 4891 1769 4719 1320 
Q 4547 872 4197 525 
Q 3891 219 3497 64 
Q 3103 -91 2625 -91 
z
" transform="scale(0.015625)"/>
       <path id="DejaVuSerif-75" d="M 2266 3322 
L 3341 3322 
L 3341 331 
L 3884 331 
L 3884 0 
L 2766 0 
L 2766 588 
Q 2606 256 2353 82 
Q 2100 -91 1766 -91 
Q 1213 -91 952 223 
Q 691 538 691 1209 
L 691 2988 
L 172 2988 
L 172 3322 
L 1269 3322 
L 1269 1388 
Q 1269 781 1417 556 
Q 1566 331 1947 331 
Q 2347 331 2556 625 
Q 2766 919 2766 1478 
L 2766 2988 
L 2266 2988 
L 2266 3322 
z
" transform="scale(0.015625)"/>
       <path id="DejaVuSerif-74" d="M 691 2988 
L 184 2988 
L 184 3322 
L 691 3322 
L 691 4353 
L 1269 4353 
L 1269 3322 
L 2350 3322 
L 2350 2988 
L 1269 2988 
L 1269 878 
Q 1269 456 1350 337 
Q 1431 219 1650 219 
Q 1875 219 1978 351 
Q 2081 484 2088 781 
L 2522 781 
Q 2497 328 2275 118 
Q 2053 -91 1600 -91 
Q 1103 -91 897 129 
Q 691 350 691 878 
L 691 2988 
z
" transform="scale(0.015625)"/>
       <path id="DejaVuSerif-70" d="M 1313 1825 
L 1313 1497 
Q 1313 897 1542 583 
Q 1772 269 2209 269 
Q 2650 269 2876 622 
Q 3103 975 3103 1663 
Q 3103 2353 2876 2703 
Q 2650 3053 2209 3053 
Q 1772 3053 1542 2737 
Q 1313 2422 1313 1825 
z
M 738 2988 
L 184 2988 
L 184 3322 
L 1313 3322 
L 1313 2803 
Q 1481 3116 1742 3264 
Q 2003 3413 2388 3413 
Q 3000 3413 3387 2928 
Q 3775 2444 3775 1663 
Q 3775 881 3387 395 
Q 3000 -91 2388 -91 
Q 2003 -91 1742 57 
Q 1481 206 1313 519 
L 1313 -997 
L 1856 -997 
L 1856 -1331 
L 184 -1331 
L 184 -997 
L 738 -997 
L 738 2988 
z
" transform="scale(0.015625)"/>
       <path id="DejaVuSerif-20" transform="scale(0.015625)"/>
       <path id="DejaVuSerif-76" d="M 1581 0 
L 359 2988 
L -19 2988 
L -19 3322 
L 1509 3322 
L 1509 2988 
L 978 2988 
L 1913 703 
L 2847 2988 
L 2350 2988 
L 2350 3322 
L 3597 3322 
L 3597 2988 
L 3225 2988 
L 2003 0 
L 1581 0 
z
" transform="scale(0.015625)"/>
       <path id="DejaVuSerif-6f" d="M 1925 219 
Q 2388 219 2623 584 
Q 2859 950 2859 1663 
Q 2859 2375 2623 2739 
Q 2388 3103 1925 3103 
Q 1463 3103 1227 2739 
Q 991 2375 991 1663 
Q 991 950 1228 584 
Q 1466 219 1925 219 
z
M 1925 -91 
Q 1200 -91 759 389 
Q 319 869 319 1663 
Q 319 2456 758 2934 
Q 1197 3413 1925 3413 
Q 2653 3413 3092 2934 
Q 3531 2456 3531 1663 
Q 3531 869 3092 389 
Q 2653 -91 1925 -91 
z
" transform="scale(0.015625)"/>
       <path id="DejaVuSerif-6c" d="M 1313 331 
L 1856 331 
L 1856 0 
L 184 0 
L 184 331 
L 738 331 
L 738 4531 
L 184 4531 
L 184 4863 
L 1313 4863 
L 1313 331 
z
" transform="scale(0.015625)"/>
       <path id="DejaVuSerif-6d" d="M 3316 2675 
Q 3481 3041 3739 3227 
Q 3997 3413 4341 3413 
Q 4863 3413 5119 3089 
Q 5375 2766 5375 2113 
L 5375 331 
L 5894 331 
L 5894 0 
L 4300 0 
L 4300 331 
L 4800 331 
L 4800 2047 
Q 4800 2556 4650 2772 
Q 4500 2988 4153 2988 
Q 3769 2988 3567 2697 
Q 3366 2406 3366 1850 
L 3366 331 
L 3866 331 
L 3866 0 
L 2291 0 
L 2291 331 
L 2791 331 
L 2791 2069 
Q 2791 2566 2641 2777 
Q 2491 2988 2144 2988 
Q 1759 2988 1557 2697 
Q 1356 2406 1356 1850 
L 1356 331 
L 1856 331 
L 1856 0 
L 263 0 
L 263 331 
L 781 331 
L 781 2994 
L 231 2994 
L 231 3322 
L 1356 3322 
L 1356 2731 
Q 1516 3063 1762 3238 
Q 2009 3413 2322 3413 
Q 2709 3413 2968 3220 
Q 3228 3028 3316 2675 
z
" transform="scale(0.015625)"/>
       <path id="DejaVuSerif-65" d="M 3469 1600 
L 991 1600 
L 991 1575 
Q 991 903 1244 561 
Q 1497 219 1991 219 
Q 2369 219 2611 417 
Q 2853 616 2950 1006 
L 3413 1006 
Q 3275 459 2904 184 
Q 2534 -91 1931 -91 
Q 1203 -91 761 389 
Q 319 869 319 1663 
Q 319 2450 753 2931 
Q 1188 3413 1894 3413 
Q 2647 3413 3050 2948 
Q 3453 2484 3469 1600 
z
M 2791 1931 
Q 2772 2513 2545 2808 
Q 2319 3103 1894 3103 
Q 1497 3103 1269 2806 
Q 1041 2509 991 1931 
L 2791 1931 
z
" transform="scale(0.015625)"/>
       <path id="DejaVuSerif-28" d="M 2041 -997 
Q 1281 -656 893 83 
Q 506 822 506 1931 
Q 506 3044 893 3783 
Q 1281 4522 2041 4863 
L 2041 4556 
Q 1559 4225 1350 3623 
Q 1141 3022 1141 1931 
Q 1141 844 1350 242 
Q 1559 -359 2041 -691 
L 2041 -997 
z
" transform="scale(0.015625)"/>
       <path id="DejaVuSerif-72" d="M 3059 3328 
L 3059 2497 
L 2728 2497 
Q 2713 2744 2591 2866 
Q 2469 2988 2234 2988 
Q 1809 2988 1582 2694 
Q 1356 2400 1356 1850 
L 1356 331 
L 2022 331 
L 2022 0 
L 263 0 
L 263 331 
L 781 331 
L 781 2994 
L 231 2994 
L 231 3322 
L 1356 3322 
L 1356 2731 
Q 1525 3078 1790 3245 
Q 2056 3413 2438 3413 
Q 2578 3413 2733 3391 
Q 2888 3369 3059 3328 
z
" transform="scale(0.015625)"/>
       <path id="DejaVuSerif-2d" d="M 281 1959 
L 1881 1959 
L 1881 1472 
L 281 1472 
L 281 1959 
z
" transform="scale(0.015625)"/>
       <path id="DejaVuSerif-41" d="M 1281 1691 
L 2994 1691 
L 2138 3909 
L 1281 1691 
z
M -38 0 
L -38 331 
L 372 331 
L 2034 4666 
L 2559 4666 
L 4225 331 
L 4684 331 
L 4684 0 
L 2988 0 
L 2988 331 
L 3506 331 
L 3116 1356 
L 1153 1356 
L 763 331 
L 1275 331 
L 1275 0 
L -38 0 
z
" transform="scale(0.015625)"/>
       <path id="DejaVuSerif-49" d="M 1581 331 
L 2175 331 
L 2175 0 
L 353 0 
L 353 331 
L 947 331 
L 947 4331 
L 353 4331 
L 353 4666 
L 2175 4666 
L 2175 4331 
L 1581 4331 
L 1581 331 
z
" transform="scale(0.015625)"/>
       <path id="DejaVuSerif-62" d="M 738 331 
L 738 4531 
L 184 4531 
L 184 4863 
L 1313 4863 
L 1313 2803 
Q 1481 3116 1742 3264 
Q 2003 3413 2388 3413 
Q 3000 3413 3387 2928 
Q 3775 2444 3775 1663 
Q 3775 881 3387 395 
Q 3000 -91 2388 -91 
Q 2003 -91 1742 57 
Q 1481 206 1313 519 
L 1313 0 
L 184 0 
L 184 331 
L 738 331 
z
M 1313 1497 
Q 1313 897 1542 583 
Q 1772 269 2209 269 
Q 2650 269 2876 622 
Q 3103 975 3103 1663 
Q 3103 2353 2876 2703 
Q 2650 3053 2209 3053 
Q 1772 3053 1542 2737 
Q 1313 2422 1313 1825 
L 1313 1497 
z
" transform="scale(0.015625)"/>
       <path id="DejaVuSerif-61" d="M 2547 1044 
L 2547 1747 
L 1806 1747 
Q 1378 1747 1168 1562 
Q 959 1378 959 997 
Q 959 650 1171 447 
Q 1384 244 1747 244 
Q 2106 244 2326 466 
Q 2547 688 2547 1044 
z
M 3122 2075 
L 3122 331 
L 3634 331 
L 3634 0 
L 2547 0 
L 2547 359 
Q 2356 128 2106 18 
Q 1856 -91 1522 -91 
Q 969 -91 644 203 
Q 319 497 319 997 
Q 319 1513 691 1797 
Q 1063 2081 1741 2081 
L 2547 2081 
L 2547 2309 
Q 2547 2688 2317 2895 
Q 2088 3103 1672 3103 
Q 1328 3103 1125 2947 
Q 922 2791 872 2484 
L 575 2484 
L 575 3156 
Q 875 3284 1158 3348 
Q 1441 3413 1709 3413 
Q 2400 3413 2761 3070 
Q 3122 2728 3122 2075 
z
" transform="scale(0.015625)"/>
       <path id="DejaVuSerif-73" d="M 359 184 
L 359 959 
L 691 959 
Q 703 588 923 403 
Q 1144 219 1575 219 
Q 1963 219 2166 364 
Q 2369 509 2369 788 
Q 2369 1006 2220 1140 
Q 2072 1275 1594 1428 
L 1178 1569 
Q 750 1706 558 1912 
Q 366 2119 366 2438 
Q 366 2894 700 3153 
Q 1034 3413 1625 3413 
Q 1888 3413 2178 3344 
Q 2469 3275 2778 3144 
L 2778 2419 
L 2447 2419 
Q 2434 2741 2221 2922 
Q 2009 3103 1644 3103 
Q 1281 3103 1095 2975 
Q 909 2847 909 2591 
Q 909 2381 1050 2254 
Q 1191 2128 1613 1997 
L 2069 1856 
Q 2541 1709 2748 1489 
Q 2956 1269 2956 922 
Q 2956 450 2595 179 
Q 2234 -91 1600 -91 
Q 1278 -91 972 -22 
Q 666 47 359 184 
z
" transform="scale(0.015625)"/>
       <path id="DejaVuSerif-69" d="M 622 4353 
Q 622 4497 726 4603 
Q 831 4709 978 4709 
Q 1122 4709 1226 4603 
Q 1331 4497 1331 4353 
Q 1331 4206 1228 4103 
Q 1125 4000 978 4000 
Q 831 4000 726 4103 
Q 622 4206 622 4353 
z
M 1356 331 
L 1900 331 
L 1900 0 
L 231 0 
L 231 331 
L 781 331 
L 781 2988 
L 231 2988 
L 231 3322 
L 1356 3322 
L 1356 331 
z
" transform="scale(0.015625)"/>
       <path id="DejaVuSerif-6e" d="M 263 0 
L 263 331 
L 781 331 
L 781 2988 
L 231 2988 
L 231 3322 
L 1356 3322 
L 1356 2731 
Q 1516 3069 1770 3241 
Q 2025 3413 2363 3413 
Q 2913 3413 3172 3097 
Q 3431 2781 3431 2113 
L 3431 331 
L 3944 331 
L 3944 0 
L 2356 0 
L 2356 331 
L 2853 331 
L 2853 1931 
Q 2853 2541 2703 2767 
Q 2553 2994 2175 2994 
Q 1775 2994 1565 2701 
Q 1356 2409 1356 1850 
L 1356 331 
L 1856 331 
L 1856 0 
L 263 0 
z
" transform="scale(0.015625)"/>
       <path id="DejaVuSerif-3d" d="M 678 2894 
L 4684 2894 
L 4684 2394 
L 678 2394 
L 678 2894 
z
M 678 1619 
L 4684 1619 
L 4684 1119 
L 678 1119 
L 678 1619 
z
" transform="scale(0.015625)"/>
       <path id="DejaVuSerif-29" d="M 453 -997 
L 453 -691 
Q 934 -359 1145 242 
Q 1356 844 1356 1931 
Q 1356 3022 1145 3623 
Q 934 4225 453 4556 
L 453 4863 
Q 1216 4522 1603 3783 
Q 1991 3044 1991 1931 
Q 1991 822 1603 83 
Q 1216 -656 453 -997 
z
" transform="scale(0.015625)"/>
      </defs>
      <use xlink:href="#DejaVuSerif-4f"/>
      <use xlink:href="#DejaVuSerif-75" transform="translate(81.982422 0)"/>
      <use xlink:href="#DejaVuSerif-74" transform="translate(146.386719 0)"/>
      <use xlink:href="#DejaVuSerif-70" transform="translate(186.572266 0)"/>
      <use xlink:href="#DejaVuSerif-75" transform="translate(250.585938 0)"/>
      <use xlink:href="#DejaVuSerif-74" transform="translate(314.990234 0)"/>
      <use xlink:href="#DejaVuSerif-20" transform="translate(355.175781 0)"/>
      <use xlink:href="#DejaVuSerif-76" transform="translate(386.962891 0)"/>
      <use xlink:href="#DejaVuSerif-6f" transform="translate(443.457031 0)"/>
      <use xlink:href="#DejaVuSerif-6c" transform="translate(503.662109 0)"/>
      <use xlink:href="#DejaVuSerif-75" transform="translate(535.644531 0)"/>
      <use xlink:href="#DejaVuSerif-6d" transform="translate(600.048828 0)"/>
      <use xlink:href="#DejaVuSerif-65" transform="translate(694.873047 0)"/>
      <use xlink:href="#DejaVuSerif-20" transform="translate(754.052734 0)"/>
      <use xlink:href="#DejaVuSerif-28" transform="translate(785.839844 0)"/>
      <use xlink:href="#DejaVuSerif-70" transform="translate(824.853516 0)"/>
      <use xlink:href="#DejaVuSerif-72" transform="translate(888.867188 0)"/>
      <use xlink:href="#DejaVuSerif-65" transform="translate(936.669922 0)"/>
      <use xlink:href="#DejaVuSerif-2d" transform="translate(995.849609 0)"/>
      <use xlink:href="#DejaVuSerif-41" transform="translate(1029.638672 0)"/>
      <use xlink:href="#DejaVuSerif-49" transform="translate(1101.855469 0)"/>
      <use xlink:href="#DejaVuSerif-20" transform="translate(1141.357422 0)"/>
      <use xlink:href="#DejaVuSerif-62" transform="translate(1173.144531 0)"/>
      <use xlink:href="#DejaVuSerif-61" transform="translate(1237.158203 0)"/>
      <use xlink:href="#DejaVuSerif-73" transform="translate(1296.777344 0)"/>
      <use xlink:href="#DejaVuSerif-65" transform="translate(1348.095703 0)"/>
      <use xlink:href="#DejaVuSerif-6c" transform="translate(1407.275391 0)"/>
      <use xlink:href="#DejaVuSerif-69" transform="translate(1439.257812 0)"/>
      <use xlink:href="#DejaVuSerif-6e" transform="translate(1471.240234 0)"/>
      <use xlink:href="#DejaVuSerif-65" transform="translate(1535.644531 0)"/>
      <use xlink:href="#DejaVuSerif-20" transform="translate(1594.824219 0)"/>
      <use xlink:href="#DejaVuSerif-3d" transform="translate(1626.611328 0)"/>
      <use xlink:href="#DejaVuSerif-20" transform="translate(1710.400391 0)"/>
      <use xlink:href="#DejaVuSerif-31" transform="translate(1742.1875 0)"/>
      <use xlink:href="#DejaVuSerif-78" transform="translate(1805.810547 0)"/>
      <use xlink:href="#DejaVuSerif-29" transform="translate(1862.207031 0)"/>
     </g>
    </g>
   </g>
   <g id="matplotlib.axis_2">
    <g id="ytick_1">
     <g id="line2d_7">
      <defs>
       <path id="m0d30054d17" d="M 0 0 
L 4 0 
" style="stroke: #333333; stroke-width: 0.8"/>
      </defs>
      <g>
       <use xlink:href="#m0d30054d17" x="39.815156" y="315.033138" style="fill: #333333; stroke: #333333; stroke-width: 0.8"/>
      </g>
     </g>
     <g id="text_7">
      <!-- 0 -->
      <g style="fill: #333333" transform="translate(30.588906 318.452435) scale(0.09 -0.09)">
       <use xlink:href="#DejaVuSerif-30"/>
      </g>
     </g>
    </g>
    <g id="ytick_2">
     <g id="line2d_8">
      <g>
       <use xlink:href="#m0d30054d17" x="39.815156" y="247.745183" style="fill: #333333; stroke: #333333; stroke-width: 0.8"/>
      </g>
     </g>
     <g id="text_8">
      <!-- 2.5 -->
      <g style="fill: #333333" transform="translate(22.002344 251.16448) scale(0.09 -0.09)">
       <defs>
        <path id="DejaVuSerif-32" d="M 819 3553 
L 469 3553 
L 469 4384 
Q 803 4563 1142 4656 
Q 1481 4750 1806 4750 
Q 2534 4750 2956 4397 
Q 3378 4044 3378 3438 
Q 3378 2753 2422 1800 
Q 2347 1728 2309 1691 
L 1131 513 
L 3078 513 
L 3078 1088 
L 3444 1088 
L 3444 0 
L 434 0 
L 434 341 
L 1850 1753 
Q 2319 2222 2519 2614 
Q 2719 3006 2719 3438 
Q 2719 3909 2473 4175 
Q 2228 4441 1797 4441 
Q 1350 4441 1106 4219 
Q 863 3997 819 3553 
z
" transform="scale(0.015625)"/>
        <path id="DejaVuSerif-2e" d="M 603 325 
Q 603 500 722 622 
Q 841 744 1019 744 
Q 1191 744 1312 622 
Q 1434 500 1434 325 
Q 1434 153 1312 31 
Q 1191 -91 1019 -91 
Q 841 -91 722 29 
Q 603 150 603 325 
z
" transform="scale(0.015625)"/>
       </defs>
       <use xlink:href="#DejaVuSerif-32"/>
       <use xlink:href="#DejaVuSerif-2e" transform="translate(63.623047 0)"/>
       <use xlink:href="#DejaVuSerif-35" transform="translate(95.410156 0)"/>
      </g>
     </g>
    </g>
    <g id="ytick_3">
     <g id="line2d_9">
      <g>
       <use xlink:href="#m0d30054d17" x="39.815156" y="180.457228" style="fill: #333333; stroke: #333333; stroke-width: 0.8"/>
      </g>
     </g>
     <g id="text_9">
      <!-- 5 -->
      <g style="fill: #333333" transform="translate(30.588906 183.876525) scale(0.09 -0.09)">
       <use xlink:href="#DejaVuSerif-35"/>
      </g>
     </g>
    </g>
    <g id="ytick_4">
     <g id="line2d_10">
      <g>
       <use xlink:href="#m0d30054d17" x="39.815156" y="113.169274" style="fill: #333333; stroke: #333333; stroke-width: 0.8"/>
      </g>
     </g>
     <g id="text_10">
      <!-- 7.5 -->
      <g style="fill: #333333" transform="translate(22.002344 116.58857) scale(0.09 -0.09)">
       <use xlink:href="#DejaVuSerif-37"/>
       <use xlink:href="#DejaVuSerif-2e" transform="translate(63.623047 0)"/>
       <use xlink:href="#DejaVuSerif-35" transform="translate(95.410156 0)"/>
      </g>
     </g>
    </g>
    <g id="ytick_5">
     <g id="line2d_11">
      <g>
       <use xlink:href="#m0d30054d17" x="39.815156" y="45.881319" style="fill: #333333; stroke: #333333; stroke-width: 0.8"/>
      </g>
     </g>
     <g id="text_11">
      <!-- 10 -->
      <g style="fill: #333333" transform="translate(24.862656 49.300616) scale(0.09 -0.09)">
       <use xlink:href="#DejaVuSerif-31"/>
       <use xlink:href="#DejaVuSerif-30" transform="translate(63.623047 0)"/>
      </g>
     </g>
    </g>
    <g id="text_12">
     <!-- Quality (schematic index) -->
     <g transform="translate(15.558281 245.779281) rotate(-90) scale(0.11 -0.11)">
      <defs>
       <path id="DejaVuSerif-51" d="M 2700 -91 
Q 1628 -91 993 567 
Q 359 1225 359 2328 
Q 359 2894 529 3339 
Q 700 3784 1050 4134 
Q 1356 4441 1750 4595 
Q 2144 4750 2625 4750 
Q 3641 4750 4266 4084 
Q 4891 3419 4891 2328 
Q 4891 1403 4422 773 
Q 3953 144 3128 -38 
Q 3297 -247 3539 -347 
Q 3781 -447 4122 -447 
L 4219 -447 
L 4219 -1025 
Q 3691 -1000 3314 -767 
Q 2938 -534 2700 -91 
z
M 2625 244 
Q 3391 244 3781 770 
Q 4172 1297 4172 2328 
Q 4172 3363 3781 3889 
Q 3391 4416 2625 4416 
Q 1856 4416 1465 3889 
Q 1075 3363 1075 2328 
Q 1075 1297 1465 770 
Q 1856 244 2625 244 
z
" transform="scale(0.015625)"/>
       <path id="DejaVuSerif-79" d="M 1381 -609 
L 1600 -56 
L 359 2988 
L -19 2988 
L -19 3322 
L 1509 3322 
L 1509 2988 
L 978 2988 
L 1913 703 
L 2847 2988 
L 2350 2988 
L 2350 3322 
L 3597 3322 
L 3597 2988 
L 3225 2988 
L 1703 -750 
Q 1547 -1138 1356 -1280 
Q 1166 -1422 819 -1422 
Q 672 -1422 517 -1397 
Q 363 -1372 206 -1325 
L 206 -691 
L 500 -691 
Q 519 -903 608 -995 
Q 697 -1088 884 -1088 
Q 1056 -1088 1161 -992 
Q 1266 -897 1381 -609 
z
" transform="scale(0.015625)"/>
       <path id="DejaVuSerif-63" d="M 3291 997 
Q 3169 466 2822 187 
Q 2475 -91 1925 -91 
Q 1200 -91 759 389 
Q 319 869 319 1663 
Q 319 2459 759 2936 
Q 1200 3413 1925 3413 
Q 2241 3413 2553 3339 
Q 2866 3266 3181 3116 
L 3181 2266 
L 2847 2266 
Q 2781 2703 2561 2903 
Q 2341 3103 1931 3103 
Q 1466 3103 1228 2742 
Q 991 2381 991 1663 
Q 991 944 1227 581 
Q 1463 219 1931 219 
Q 2303 219 2525 412 
Q 2747 606 2828 997 
L 3291 997 
z
" transform="scale(0.015625)"/>
       <path id="DejaVuSerif-68" d="M 263 0 
L 263 331 
L 781 331 
L 781 4531 
L 231 4531 
L 231 4863 
L 1356 4863 
L 1356 2731 
Q 1516 3069 1770 3241 
Q 2025 3413 2363 3413 
Q 2913 3413 3172 3097 
Q 3431 2781 3431 2113 
L 3431 331 
L 3944 331 
L 3944 0 
L 2356 0 
L 2356 331 
L 2853 331 
L 2853 1931 
Q 2853 2541 2704 2764 
Q 2556 2988 2175 2988 
Q 1775 2988 1565 2697 
Q 1356 2406 1356 1850 
L 1356 331 
L 1856 331 
L 1856 0 
L 263 0 
z
" transform="scale(0.015625)"/>
       <path id="DejaVuSerif-64" d="M 3359 331 
L 3909 331 
L 3909 0 
L 2784 0 
L 2784 519 
Q 2616 206 2355 57 
Q 2094 -91 1709 -91 
Q 1097 -91 708 395 
Q 319 881 319 1663 
Q 319 2444 706 2928 
Q 1094 3413 1709 3413 
Q 2094 3413 2355 3264 
Q 2616 3116 2784 2803 
L 2784 4531 
L 2241 4531 
L 2241 4863 
L 3359 4863 
L 3359 331 
z
M 2784 1497 
L 2784 1825 
Q 2784 2422 2554 2737 
Q 2325 3053 1888 3053 
Q 1444 3053 1217 2703 
Q 991 2353 991 1663 
Q 991 975 1217 622 
Q 1444 269 1888 269 
Q 2325 269 2554 583 
Q 2784 897 2784 1497 
z
" transform="scale(0.015625)"/>
      </defs>
      <use xlink:href="#DejaVuSerif-51"/>
      <use xlink:href="#DejaVuSerif-75" transform="translate(81.982422 0)"/>
      <use xlink:href="#DejaVuSerif-61" transform="translate(146.386719 0)"/>
      <use xlink:href="#DejaVuSerif-6c" transform="translate(206.005859 0)"/>
      <use xlink:href="#DejaVuSerif-69" transform="translate(237.988281 0)"/>
      <use xlink:href="#DejaVuSerif-74" transform="translate(269.970703 0)"/>
      <use xlink:href="#DejaVuSerif-79" transform="translate(310.15625 0)"/>
      <use xlink:href="#DejaVuSerif-20" transform="translate(366.650391 0)"/>
      <use xlink:href="#DejaVuSerif-28" transform="translate(398.4375 0)"/>
      <use xlink:href="#DejaVuSerif-73" transform="translate(437.451172 0)"/>
      <use xlink:href="#DejaVuSerif-63" transform="translate(488.769531 0)"/>
      <use xlink:href="#DejaVuSerif-68" transform="translate(544.775391 0)"/>
      <use xlink:href="#DejaVuSerif-65" transform="translate(609.179688 0)"/>
      <use xlink:href="#DejaVuSerif-6d" transform="translate(668.359375 0)"/>
      <use xlink:href="#DejaVuSerif-61" transform="translate(763.183594 0)"/>
      <use xlink:href="#DejaVuSerif-74" transform="translate(822.802734 0)"/>
      <use xlink:href="#DejaVuSerif-69" transform="translate(862.988281 0)"/>
      <use xlink:href="#DejaVuSerif-63" transform="translate(894.970703 0)"/>
      <use xlink:href="#DejaVuSerif-20" transform="translate(950.976562 0)"/>
      <use xlink:href="#DejaVuSerif-69" transform="translate(982.763672 0)"/>
      <use xlink:href="#DejaVuSerif-6e" transform="translate(1014.746094 0)"/>
      <use xlink:href="#DejaVuSerif-64" transform="translate(1079.150391 0)"/>
      <use xlink:href="#DejaVuSerif-65" transform="translate(1143.164062 0)"/>
      <use xlink:href="#DejaVuSerif-78" transform="translate(1202.34375 0)"/>
      <use xlink:href="#DejaVuSerif-29" transform="translate(1258.740234 0)"/>
     </g>
    </g>
   </g>
   <g id="line2d_12">
    <path d="M 63.31552 60.893961 
L 87.766766 61.194482 
L 104.067596 61.606644 
L 116.293219 62.120979 
L 126.481238 62.760644 
L 134.631653 63.469269 
L 141.763267 64.281578 
L 148.89488 65.325251 
L 155.007691 66.450755 
L 160.101701 67.58726 
L 165.19571 68.938212 
L 170.28972 70.540015 
L 174.364927 72.029399 
L 178.440135 73.728357 
L 182.515343 75.661459 
L 186.59055 77.854624 
L 190.665758 80.334687 
L 194.740965 83.128801 
L 198.816173 86.263612 
L 202.891381 89.764222 
L 206.966588 93.652925 
L 211.041796 97.947725 
L 215.117003 102.66071 
L 219.192211 107.796339 
L 223.267419 113.349788 
L 227.342626 119.305503 
L 231.417834 125.636138 
L 236.511843 134.015158 
L 242.624655 144.612767 
L 250.77507 159.284058 
L 260.963089 177.608404 
L 267.0759 188.125942 
L 272.16991 196.414342 
L 276.245118 202.660586 
L 280.320325 208.524438 
L 284.395533 213.981372 
L 288.47074 219.018449 
L 292.545948 223.63315 
L 296.621156 227.831868 
L 300.696363 231.628222 
L 304.771571 235.041359 
L 308.846778 238.094353 
L 312.921986 240.812771 
L 316.997194 243.223463 
L 321.072401 245.353571 
L 325.147609 247.229765 
L 335.335628 251.598509 
L 340.429637 253.487192 
L 346.542449 255.507082 
L 352.65526 257.299448 
L 359.786874 259.157322 
L 367.937289 261.04081 
L 377.106506 262.933802 
L 388.313327 265.024265 
L 403.595355 267.636438 
L 429.065403 271.728352 
L 480.005498 279.902984 
L 512.607159 285.377368 
L 546.227622 291.253891 
L 580.866886 297.53998 
L 592.073707 299.620756 
L 592.073707 299.620756 
" clip-path="url(#pdf7afcd762)" style="fill: none; stroke: #333333; stroke-width: 1.8; stroke-linecap: square"/>
   </g>
   <g id="patch_3">
    <path d="M 39.815156 315.033138 
L 39.815156 45.881319 
" style="fill: none; stroke: #000000; stroke-width: 0.8; stroke-linejoin: miter; stroke-linecap: square"/>
   </g>
   <g id="patch_4">
    <path d="M 43.731884 317.724656 
L 592.073707 317.724656 
" style="fill: none; stroke: #000000; stroke-width: 0.8; stroke-linejoin: miter; stroke-linecap: square"/>
   </g>
   <g id="patch_5">
    <path d="M 122.06643 113.186639 
Q 122.06643 90.321008 122.06643 69.020623 
" style="fill: none; stroke: #117733; stroke-width: 1.4; stroke-linecap: round"/>
    <path d="M 119.66643 73.820623 
L 122.06643 69.020623 
L 124.46643 73.820623 
" style="fill: none; stroke: #117733; stroke-width: 1.4; stroke-linecap: round"/>
   </g>
   <g id="text_13">
    <!-- A. Careful adopter -->
    <g style="fill: #333333" transform="translate(141.650066 48.09672) scale(0.1 -0.1)">
     <defs>
      <path id="DejaVuSerif-43" d="M 4513 1234 
Q 4306 581 3820 245 
Q 3334 -91 2591 -91 
Q 2134 -91 1743 65 
Q 1353 222 1050 525 
Q 700 875 529 1320 
Q 359 1766 359 2328 
Q 359 3416 987 4083 
Q 1616 4750 2644 4750 
Q 3025 4750 3456 4650 
Q 3888 4550 4384 4347 
L 4384 3272 
L 4031 3272 
Q 3916 3859 3567 4137 
Q 3219 4416 2591 4416 
Q 1844 4416 1459 3886 
Q 1075 3356 1075 2328 
Q 1075 1303 1459 773 
Q 1844 244 2591 244 
Q 3113 244 3450 492 
Q 3788 741 3938 1234 
L 4513 1234 
z
" transform="scale(0.015625)"/>
      <path id="DejaVuSerif-66" d="M 2753 4078 
L 2450 4078 
Q 2447 4313 2317 4434 
Q 2188 4556 1941 4556 
Q 1619 4556 1487 4379 
Q 1356 4203 1356 3750 
L 1356 3322 
L 2284 3322 
L 2284 2988 
L 1356 2988 
L 1356 331 
L 2094 331 
L 2094 0 
L 231 0 
L 231 331 
L 781 331 
L 781 2988 
L 231 2988 
L 231 3322 
L 781 3322 
L 781 3738 
Q 781 4294 1070 4578 
Q 1359 4863 1919 4863 
Q 2128 4863 2337 4825 
Q 2547 4788 2753 4709 
L 2753 4078 
z
" transform="scale(0.015625)"/>
     </defs>
     <use xlink:href="#DejaVuSerif-41"/>
     <use xlink:href="#DejaVuSerif-2e" transform="translate(72.216797 0)"/>
     <use xlink:href="#DejaVuSerif-20" transform="translate(104.003906 0)"/>
     <use xlink:href="#DejaVuSerif-43" transform="translate(135.791016 0)"/>
     <use xlink:href="#DejaVuSerif-61" transform="translate(212.304688 0)"/>
     <use xlink:href="#DejaVuSerif-72" transform="translate(271.923828 0)"/>
     <use xlink:href="#DejaVuSerif-65" transform="translate(319.726562 0)"/>
     <use xlink:href="#DejaVuSerif-66" transform="translate(378.90625 0)"/>
     <use xlink:href="#DejaVuSerif-75" transform="translate(415.917969 0)"/>
     <use xlink:href="#DejaVuSerif-6c" transform="translate(480.322266 0)"/>
     <use xlink:href="#DejaVuSerif-20" transform="translate(512.304688 0)"/>
     <use xlink:href="#DejaVuSerif-61" transform="translate(544.091797 0)"/>
     <use xlink:href="#DejaVuSerif-64" transform="translate(603.710938 0)"/>
     <use xlink:href="#DejaVuSerif-6f" transform="translate(667.724609 0)"/>
     <use xlink:href="#DejaVuSerif-70" transform="translate(727.929688 0)"/>
     <use xlink:href="#DejaVuSerif-74" transform="translate(791.943359 0)"/>
     <use xlink:href="#DejaVuSerif-65" transform="translate(832.128906 0)"/>
     <use xlink:href="#DejaVuSerif-72" transform="translate(891.308594 0)"/>
    </g>
    <!-- same volume, higher quality -->
    <g style="fill: #333333" transform="translate(141.650066 58.914611) scale(0.1 -0.1)">
     <defs>
      <path id="DejaVuSerif-2c" d="M 231 -622 
Q 525 -406 662 -114 
Q 800 178 800 594 
L 800 709 
L 1416 709 
Q 1391 175 1164 -208 
Q 938 -591 481 -872 
L 231 -622 
z
" transform="scale(0.015625)"/>
      <path id="DejaVuSerif-67" d="M 3359 2988 
L 3359 72 
Q 3359 -644 2965 -1033 
Q 2572 -1422 1844 -1422 
Q 1516 -1422 1216 -1362 
Q 916 -1303 641 -1184 
L 641 -488 
L 941 -488 
Q 997 -813 1206 -963 
Q 1416 -1113 1806 -1113 
Q 2313 -1113 2548 -827 
Q 2784 -541 2784 72 
L 2784 519 
Q 2616 206 2355 57 
Q 2094 -91 1709 -91 
Q 1097 -91 708 395 
Q 319 881 319 1663 
Q 319 2444 706 2928 
Q 1094 3413 1709 3413 
Q 2094 3413 2355 3264 
Q 2616 3116 2784 2803 
L 2784 3322 
L 3909 3322 
L 3909 2988 
L 3359 2988 
z
M 2784 1825 
Q 2784 2422 2554 2737 
Q 2325 3053 1888 3053 
Q 1444 3053 1217 2703 
Q 991 2353 991 1663 
Q 991 975 1217 622 
Q 1444 269 1888 269 
Q 2325 269 2554 583 
Q 2784 897 2784 1497 
L 2784 1825 
z
" transform="scale(0.015625)"/>
      <path id="DejaVuSerif-71" d="M 3359 2988 
L 3359 -997 
L 3909 -997 
L 3909 -1331 
L 2241 -1331 
L 2241 -997 
L 2784 -997 
L 2784 519 
Q 2616 206 2355 57 
Q 2094 -91 1709 -91 
Q 1097 -91 708 395 
Q 319 881 319 1663 
Q 319 2444 706 2928 
Q 1094 3413 1709 3413 
Q 2094 3413 2355 3264 
Q 2616 3116 2784 2803 
L 2784 3322 
L 3909 3322 
L 3909 2988 
L 3359 2988 
z
M 2784 1825 
Q 2784 2422 2554 2737 
Q 2325 3053 1888 3053 
Q 1444 3053 1217 2703 
Q 991 2353 991 1663 
Q 991 975 1217 622 
Q 1444 269 1888 269 
Q 2325 269 2554 583 
Q 2784 897 2784 1497 
L 2784 1825 
z
" transform="scale(0.015625)"/>
     </defs>
     <use xlink:href="#DejaVuSerif-73"/>
     <use xlink:href="#DejaVuSerif-61" transform="translate(51.318359 0)"/>
     <use xlink:href="#DejaVuSerif-6d" transform="translate(110.9375 0)"/>
     <use xlink:href="#DejaVuSerif-65" transform="translate(205.761719 0)"/>
     <use xlink:href="#DejaVuSerif-20" transform="translate(264.941406 0)"/>
     <use xlink:href="#DejaVuSerif-76" transform="translate(296.728516 0)"/>
     <use xlink:href="#DejaVuSerif-6f" transform="translate(353.222656 0)"/>
     <use xlink:href="#DejaVuSerif-6c" transform="translate(413.427734 0)"/>
     <use xlink:href="#DejaVuSerif-75" transform="translate(445.410156 0)"/>
     <use xlink:href="#DejaVuSerif-6d" transform="translate(509.814453 0)"/>
     <use xlink:href="#DejaVuSerif-65" transform="translate(604.638672 0)"/>
     <use xlink:href="#DejaVuSerif-2c" transform="translate(663.818359 0)"/>
     <use xlink:href="#DejaVuSerif-20" transform="translate(695.605469 0)"/>
     <use xlink:href="#DejaVuSerif-68" transform="translate(727.392578 0)"/>
     <use xlink:href="#DejaVuSerif-69" transform="translate(791.796875 0)"/>
     <use xlink:href="#DejaVuSerif-67" transform="translate(823.779297 0)"/>
     <use xlink:href="#DejaVuSerif-68" transform="translate(887.792969 0)"/>
     <use xlink:href="#DejaVuSerif-65" transform="translate(952.197266 0)"/>
     <use xlink:href="#DejaVuSerif-72" transform="translate(1011.376953 0)"/>
     <use xlink:href="#DejaVuSerif-20" transform="translate(1059.179688 0)"/>
     <use xlink:href="#DejaVuSerif-71" transform="translate(1090.966797 0)"/>
     <use xlink:href="#DejaVuSerif-75" transform="translate(1154.980469 0)"/>
     <use xlink:href="#DejaVuSerif-61" transform="translate(1219.384766 0)"/>
     <use xlink:href="#DejaVuSerif-6c" transform="translate(1279.003906 0)"/>
     <use xlink:href="#DejaVuSerif-69" transform="translate(1310.986328 0)"/>
     <use xlink:href="#DejaVuSerif-74" transform="translate(1342.96875 0)"/>
     <use xlink:href="#DejaVuSerif-79" transform="translate(1383.154297 0)"/>
    </g>
   </g>
   <g id="patch_6">
    <path d="M 127.065079 118.183309 
Q 174.328564 118.183309 220.026802 118.183309 
" style="fill: none; stroke: #332288; stroke-width: 1.4; stroke-linecap: round"/>
    <path d="M 215.226802 115.783309 
L 220.026802 118.183309 
L 215.226802 120.583309 
" style="fill: none; stroke: #332288; stroke-width: 1.4; stroke-linecap: round"/>
   </g>
   <g id="text_14">
    <!-- B. Disciplined volume -->
    <g style="fill: #333333" transform="translate(243.484976 96.092231) scale(0.1 -0.1)">
     <defs>
      <path id="DejaVuSerif-42" d="M 1581 331 
L 2516 331 
Q 3078 331 3337 575 
Q 3597 819 3597 1350 
Q 3597 1878 3339 2120 
Q 3081 2363 2516 2363 
L 1581 2363 
L 1581 331 
z
M 1581 2694 
L 2375 2694 
Q 2888 2694 3123 2891 
Q 3359 3088 3359 3513 
Q 3359 3941 3123 4136 
Q 2888 4331 2375 4331 
L 1581 4331 
L 1581 2694 
z
M 353 0 
L 353 331 
L 947 331 
L 947 4331 
L 353 4331 
L 353 4666 
L 2656 4666 
Q 3363 4666 3720 4377 
Q 4078 4088 4078 3513 
Q 4078 3097 3829 2850 
Q 3581 2603 3103 2547 
Q 3697 2472 4005 2167 
Q 4313 1863 4313 1350 
Q 4313 656 3875 328 
Q 3438 0 2509 0 
L 353 0 
z
" transform="scale(0.015625)"/>
      <path id="DejaVuSerif-44" d="M 1581 331 
L 2163 331 
Q 3072 331 3558 850 
Q 4044 1369 4044 2338 
Q 4044 3306 3559 3818 
Q 3075 4331 2163 4331 
L 1581 4331 
L 1581 331 
z
M 353 0 
L 353 331 
L 947 331 
L 947 4331 
L 353 4331 
L 353 4666 
L 2209 4666 
Q 3416 4666 4089 4050 
Q 4763 3434 4763 2338 
Q 4763 1238 4088 619 
Q 3413 0 2209 0 
L 353 0 
z
" transform="scale(0.015625)"/>
     </defs>
     <use xlink:href="#DejaVuSerif-42"/>
     <use xlink:href="#DejaVuSerif-2e" transform="translate(73.486328 0)"/>
     <use xlink:href="#DejaVuSerif-20" transform="translate(105.273438 0)"/>
     <use xlink:href="#DejaVuSerif-44" transform="translate(137.060547 0)"/>
     <use xlink:href="#DejaVuSerif-69" transform="translate(217.236328 0)"/>
     <use xlink:href="#DejaVuSerif-73" transform="translate(249.21875 0)"/>
     <use xlink:href="#DejaVuSerif-63" transform="translate(300.537109 0)"/>
     <use xlink:href="#DejaVuSerif-69" transform="translate(356.542969 0)"/>
     <use xlink:href="#DejaVuSerif-70" transform="translate(388.525391 0)"/>
     <use xlink:href="#DejaVuSerif-6c" transform="translate(452.539062 0)"/>
     <use xlink:href="#DejaVuSerif-69" transform="translate(484.521484 0)"/>
     <use xlink:href="#DejaVuSerif-6e" transform="translate(516.503906 0)"/>
     <use xlink:href="#DejaVuSerif-65" transform="translate(580.908203 0)"/>
     <use xlink:href="#DejaVuSerif-64" transform="translate(640.087891 0)"/>
     <use xlink:href="#DejaVuSerif-20" transform="translate(704.101562 0)"/>
     <use xlink:href="#DejaVuSerif-76" transform="translate(735.888672 0)"/>
     <use xlink:href="#DejaVuSerif-6f" transform="translate(792.382812 0)"/>
     <use xlink:href="#DejaVuSerif-6c" transform="translate(852.587891 0)"/>
     <use xlink:href="#DejaVuSerif-75" transform="translate(884.570312 0)"/>
     <use xlink:href="#DejaVuSerif-6d" transform="translate(948.974609 0)"/>
     <use xlink:href="#DejaVuSerif-65" transform="translate(1043.798828 0)"/>
    </g>
    <!-- more volume, same quality -->
    <g style="fill: #333333" transform="translate(243.484976 106.910121) scale(0.1 -0.1)">
     <use xlink:href="#DejaVuSerif-6d"/>
     <use xlink:href="#DejaVuSerif-6f" transform="translate(94.824219 0)"/>
     <use xlink:href="#DejaVuSerif-72" transform="translate(155.029297 0)"/>
     <use xlink:href="#DejaVuSerif-65" transform="translate(202.832031 0)"/>
     <use xlink:href="#DejaVuSerif-20" transform="translate(262.011719 0)"/>
     <use xlink:href="#DejaVuSerif-76" transform="translate(293.798828 0)"/>
     <use xlink:href="#DejaVuSerif-6f" transform="translate(350.292969 0)"/>
     <use xlink:href="#DejaVuSerif-6c" transform="translate(410.498047 0)"/>
     <use xlink:href="#DejaVuSerif-75" transform="translate(442.480469 0)"/>
     <use xlink:href="#DejaVuSerif-6d" transform="translate(506.884766 0)"/>
     <use xlink:href="#DejaVuSerif-65" transform="translate(601.708984 0)"/>
     <use xlink:href="#DejaVuSerif-2c" transform="translate(660.888672 0)"/>
     <use xlink:href="#DejaVuSerif-20" transform="translate(692.675781 0)"/>
     <use xlink:href="#DejaVuSerif-73" transform="translate(724.462891 0)"/>
     <use xlink:href="#DejaVuSerif-61" transform="translate(775.78125 0)"/>
     <use xlink:href="#DejaVuSerif-6d" transform="translate(835.400391 0)"/>
     <use xlink:href="#DejaVuSerif-65" transform="translate(930.224609 0)"/>
     <use xlink:href="#DejaVuSerif-20" transform="translate(989.404297 0)"/>
     <use xlink:href="#DejaVuSerif-71" transform="translate(1021.191406 0)"/>
     <use xlink:href="#DejaVuSerif-75" transform="translate(1085.205078 0)"/>
     <use xlink:href="#DejaVuSerif-61" transform="translate(1149.609375 0)"/>
     <use xlink:href="#DejaVuSerif-6c" transform="translate(1209.228516 0)"/>
     <use xlink:href="#DejaVuSerif-69" transform="translate(1241.210938 0)"/>
     <use xlink:href="#DejaVuSerif-74" transform="translate(1273.193359 0)"/>
     <use xlink:href="#DejaVuSerif-79" transform="translate(1313.378906 0)"/>
    </g>
   </g>
   <g id="patch_7">
    <path d="M 126.614211 120.258207 
Q 298.319293 198.597641 468.193472 276.101737 
" style="fill: none; stroke: #cc6677; stroke-width: 1.8; stroke-linecap: round"/>
    <path d="M 464.822712 271.925856 
L 468.193472 276.101737 
L 462.830312 276.292817 
" style="fill: none; stroke: #cc6677; stroke-width: 1.8; stroke-linecap: round"/>
   </g>
   <g id="text_15">
    <!-- C. Vibe coding -->
    <g style="fill: #333333" transform="translate(384.48716 222.075521) scale(0.1 -0.1)">
     <defs>
      <path id="DejaVuSerif-56" d="M 1119 4331 
L 2497 750 
L 3872 4331 
L 3347 4331 
L 3347 4666 
L 4716 4666 
L 4716 4331 
L 4263 4331 
L 2597 0 
L 2059 0 
L 403 4331 
L -63 4331 
L -63 4666 
L 1638 4666 
L 1638 4331 
L 1119 4331 
z
" transform="scale(0.015625)"/>
     </defs>
     <use xlink:href="#DejaVuSerif-43"/>
     <use xlink:href="#DejaVuSerif-2e" transform="translate(72.888672 0)"/>
     <use xlink:href="#DejaVuSerif-20" transform="translate(104.675781 0)"/>
     <use xlink:href="#DejaVuSerif-56" transform="translate(136.462891 0)"/>
     <use xlink:href="#DejaVuSerif-69" transform="translate(206.929688 0)"/>
     <use xlink:href="#DejaVuSerif-62" transform="translate(238.912109 0)"/>
     <use xlink:href="#DejaVuSerif-65" transform="translate(302.925781 0)"/>
     <use xlink:href="#DejaVuSerif-20" transform="translate(362.105469 0)"/>
     <use xlink:href="#DejaVuSerif-63" transform="translate(393.892578 0)"/>
     <use xlink:href="#DejaVuSerif-6f" transform="translate(449.898438 0)"/>
     <use xlink:href="#DejaVuSerif-64" transform="translate(510.103516 0)"/>
     <use xlink:href="#DejaVuSerif-69" transform="translate(574.117188 0)"/>
     <use xlink:href="#DejaVuSerif-6e" transform="translate(606.099609 0)"/>
     <use xlink:href="#DejaVuSerif-67" transform="translate(670.503906 0)"/>
    </g>
    <!-- huge volume, quality collapses -->
    <g style="fill: #333333" transform="translate(384.48716 233.035599) scale(0.1 -0.1)">
     <use xlink:href="#DejaVuSerif-68"/>
     <use xlink:href="#DejaVuSerif-75" transform="translate(64.404297 0)"/>
     <use xlink:href="#DejaVuSerif-67" transform="translate(128.808594 0)"/>
     <use xlink:href="#DejaVuSerif-65" transform="translate(192.822266 0)"/>
     <use xlink:href="#DejaVuSerif-20" transform="translate(252.001953 0)"/>
     <use xlink:href="#DejaVuSerif-76" transform="translate(283.789062 0)"/>
     <use xlink:href="#DejaVuSerif-6f" transform="translate(340.283203 0)"/>
     <use xlink:href="#DejaVuSerif-6c" transform="translate(400.488281 0)"/>
     <use xlink:href="#DejaVuSerif-75" transform="translate(432.470703 0)"/>
     <use xlink:href="#DejaVuSerif-6d" transform="translate(496.875 0)"/>
     <use xlink:href="#DejaVuSerif-65" transform="translate(591.699219 0)"/>
     <use xlink:href="#DejaVuSerif-2c" transform="translate(650.878906 0)"/>
     <use xlink:href="#DejaVuSerif-20" transform="translate(682.666016 0)"/>
     <use xlink:href="#DejaVuSerif-71" transform="translate(714.453125 0)"/>
     <use xlink:href="#DejaVuSerif-75" transform="translate(778.466797 0)"/>
     <use xlink:href="#DejaVuSerif-61" transform="translate(842.871094 0)"/>
     <use xlink:href="#DejaVuSerif-6c" transform="translate(902.490234 0)"/>
     <use xlink:href="#DejaVuSerif-69" transform="translate(934.472656 0)"/>
     <use xlink:href="#DejaVuSerif-74" transform="translate(966.455078 0)"/>
     <use xlink:href="#DejaVuSerif-79" transform="translate(1006.640625 0)"/>
     <use xlink:href="#DejaVuSerif-20" transform="translate(1063.134766 0)"/>
     <use xlink:href="#DejaVuSerif-63" transform="translate(1094.921875 0)"/>
     <use xlink:href="#DejaVuSerif-6f" transform="translate(1150.927734 0)"/>
     <use xlink:href="#DejaVuSerif-6c" transform="translate(1211.132812 0)"/>
     <use xlink:href="#DejaVuSerif-6c" transform="translate(1243.115234 0)"/>
     <use xlink:href="#DejaVuSerif-61" transform="translate(1275.097656 0)"/>
     <use xlink:href="#DejaVuSerif-70" transform="translate(1334.716797 0)"/>
     <use xlink:href="#DejaVuSerif-73" transform="translate(1398.730469 0)"/>
     <use xlink:href="#DejaVuSerif-65" transform="translate(1450.048828 0)"/>
     <use xlink:href="#DejaVuSerif-73" transform="translate(1509.228516 0)"/>
    </g>
   </g>
   <g id="text_16">
    <!-- Pre-AI -->
    <g style="fill: #333333" transform="translate(87.019354 137.133734) scale(0.09 -0.09)">
     <defs>
      <path id="DejaVuSerif-50" d="M 1581 2375 
L 2406 2375 
Q 2872 2375 3115 2626 
Q 3359 2878 3359 3353 
Q 3359 3831 3115 4081 
Q 2872 4331 2406 4331 
L 1581 4331 
L 1581 2375 
z
M 353 0 
L 353 331 
L 947 331 
L 947 4331 
L 353 4331 
L 353 4666 
L 2559 4666 
Q 3259 4666 3668 4311 
Q 4078 3956 4078 3353 
Q 4078 2753 3668 2397 
Q 3259 2041 2559 2041 
L 1581 2041 
L 1581 331 
L 2303 331 
L 2303 0 
L 353 0 
z
" transform="scale(0.015625)"/>
     </defs>
     <use xlink:href="#DejaVuSerif-50"/>
     <use xlink:href="#DejaVuSerif-72" transform="translate(67.285156 0)"/>
     <use xlink:href="#DejaVuSerif-65" transform="translate(115.087891 0)"/>
     <use xlink:href="#DejaVuSerif-2d" transform="translate(174.267578 0)"/>
     <use xlink:href="#DejaVuSerif-41" transform="translate(208.056641 0)"/>
     <use xlink:href="#DejaVuSerif-49" transform="translate(280.273438 0)"/>
    </g>
    <!-- baseline -->
    <g style="fill: #333333" transform="translate(77.846385 146.527906) scale(0.09 -0.09)">
     <use xlink:href="#DejaVuSerif-62"/>
     <use xlink:href="#DejaVuSerif-61" transform="translate(64.013672 0)"/>
     <use xlink:href="#DejaVuSerif-73" transform="translate(123.632812 0)"/>
     <use xlink:href="#DejaVuSerif-65" transform="translate(174.951172 0)"/>
     <use xlink:href="#DejaVuSerif-6c" transform="translate(234.130859 0)"/>
     <use xlink:href="#DejaVuSerif-69" transform="translate(266.113281 0)"/>
     <use xlink:href="#DejaVuSerif-6e" transform="translate(298.095703 0)"/>
     <use xlink:href="#DejaVuSerif-65" transform="translate(362.5 0)"/>
    </g>
   </g>
   <g id="text_17">
    <!-- Pre-AI frontier -->
    <g style="fill: #888888" transform="translate(75.065702 79.593153) scale(0.1 -0.1)">
     <use xlink:href="#DejaVuSerif-50"/>
     <use xlink:href="#DejaVuSerif-72" transform="translate(67.285156 0)"/>
     <use xlink:href="#DejaVuSerif-65" transform="translate(115.087891 0)"/>
     <use xlink:href="#DejaVuSerif-2d" transform="translate(174.267578 0)"/>
     <use xlink:href="#DejaVuSerif-41" transform="translate(208.056641 0)"/>
     <use xlink:href="#DejaVuSerif-49" transform="translate(280.273438 0)"/>
     <use xlink:href="#DejaVuSerif-20" transform="translate(319.775391 0)"/>
     <use xlink:href="#DejaVuSerif-66" transform="translate(351.5625 0)"/>
     <use xlink:href="#DejaVuSerif-72" transform="translate(388.574219 0)"/>
     <use xlink:href="#DejaVuSerif-6f" transform="translate(436.376953 0)"/>
     <use xlink:href="#DejaVuSerif-6e" transform="translate(496.582031 0)"/>
     <use xlink:href="#DejaVuSerif-74" transform="translate(560.986328 0)"/>
     <use xlink:href="#DejaVuSerif-69" transform="translate(601.171875 0)"/>
     <use xlink:href="#DejaVuSerif-65" transform="translate(633.154297 0)"/>
     <use xlink:href="#DejaVuSerif-72" transform="translate(692.333984 0)"/>
    </g>
   </g>
   <g id="text_18">
    <!-- Post-AI frontier -->
    <g style="fill: #333333" transform="translate(290.485704 164.375976) scale(0.1 -0.1)">
     <use xlink:href="#DejaVuSerif-50"/>
     <use xlink:href="#DejaVuSerif-6f" transform="translate(63.285156 0)"/>
     <use xlink:href="#DejaVuSerif-73" transform="translate(123.490234 0)"/>
     <use xlink:href="#DejaVuSerif-74" transform="translate(174.808594 0)"/>
     <use xlink:href="#DejaVuSerif-2d" transform="translate(214.994141 0)"/>
     <use xlink:href="#DejaVuSerif-41" transform="translate(248.783203 0)"/>
     <use xlink:href="#DejaVuSerif-49" transform="translate(321 0)"/>
     <use xlink:href="#DejaVuSerif-20" transform="translate(360.501953 0)"/>
     <use xlink:href="#DejaVuSerif-66" transform="translate(392.289062 0)"/>
     <use xlink:href="#DejaVuSerif-72" transform="translate(429.300781 0)"/>
     <use xlink:href="#DejaVuSerif-6f" transform="translate(477.103516 0)"/>
     <use xlink:href="#DejaVuSerif-6e" transform="translate(537.308594 0)"/>
     <use xlink:href="#DejaVuSerif-74" transform="translate(601.712891 0)"/>
     <use xlink:href="#DejaVuSerif-69" transform="translate(641.898438 0)"/>
     <use xlink:href="#DejaVuSerif-65" transform="translate(673.880859 0)"/>
     <use xlink:href="#DejaVuSerif-72" transform="translate(733.060547 0)"/>
    </g>
   </g>
   <g id="text_19">
    <!-- AI shifted coding output more than coding quality -->
    <g transform="translate(39.815156 17.077969) scale(0.13 -0.13)">
     <use xlink:href="#DejaVuSerif-41"/>
     <use xlink:href="#DejaVuSerif-49" transform="translate(72.216797 0)"/>
     <use xlink:href="#DejaVuSerif-20" transform="translate(111.71875 0)"/>
     <use xlink:href="#DejaVuSerif-73" transform="translate(143.505859 0)"/>
     <use xlink:href="#DejaVuSerif-68" transform="translate(194.824219 0)"/>
     <use xlink:href="#DejaVuSerif-69" transform="translate(259.228516 0)"/>
     <use xlink:href="#DejaVuSerif-66" transform="translate(291.210938 0)"/>
     <use xlink:href="#DejaVuSerif-74" transform="translate(328.222656 0)"/>
     <use xlink:href="#DejaVuSerif-65" transform="translate(368.408203 0)"/>
     <use xlink:href="#DejaVuSerif-64" transform="translate(427.587891 0)"/>
     <use xlink:href="#DejaVuSerif-20" transform="translate(491.601562 0)"/>
     <use xlink:href="#DejaVuSerif-63" transform="translate(523.388672 0)"/>
     <use xlink:href="#DejaVuSerif-6f" transform="translate(579.394531 0)"/>
     <use xlink:href="#DejaVuSerif-64" transform="translate(639.599609 0)"/>
     <use xlink:href="#DejaVuSerif-69" transform="translate(703.613281 0)"/>
     <use xlink:href="#DejaVuSerif-6e" transform="translate(735.595703 0)"/>
     <use xlink:href="#DejaVuSerif-67" transform="translate(800 0)"/>
     <use xlink:href="#DejaVuSerif-20" transform="translate(864.013672 0)"/>
     <use xlink:href="#DejaVuSerif-6f" transform="translate(895.800781 0)"/>
     <use xlink:href="#DejaVuSerif-75" transform="translate(956.005859 0)"/>
     <use xlink:href="#DejaVuSerif-74" transform="translate(1020.410156 0)"/>
     <use xlink:href="#DejaVuSerif-70" transform="translate(1060.595703 0)"/>
     <use xlink:href="#DejaVuSerif-75" transform="translate(1124.609375 0)"/>
     <use xlink:href="#DejaVuSerif-74" transform="translate(1189.013672 0)"/>
     <use xlink:href="#DejaVuSerif-20" transform="translate(1229.199219 0)"/>
     <use xlink:href="#DejaVuSerif-6d" transform="translate(1260.986328 0)"/>
     <use xlink:href="#DejaVuSerif-6f" transform="translate(1355.810547 0)"/>
     <use xlink:href="#DejaVuSerif-72" transform="translate(1416.015625 0)"/>
     <use xlink:href="#DejaVuSerif-65" transform="translate(1463.818359 0)"/>
     <use xlink:href="#DejaVuSerif-20" transform="translate(1522.998047 0)"/>
     <use xlink:href="#DejaVuSerif-74" transform="translate(1554.785156 0)"/>
     <use xlink:href="#DejaVuSerif-68" transform="translate(1594.970703 0)"/>
     <use xlink:href="#DejaVuSerif-61" transform="translate(1659.375 0)"/>
     <use xlink:href="#DejaVuSerif-6e" transform="translate(1718.994141 0)"/>
     <use xlink:href="#DejaVuSerif-20" transform="translate(1783.398438 0)"/>
     <use xlink:href="#DejaVuSerif-63" transform="translate(1815.185547 0)"/>
     <use xlink:href="#DejaVuSerif-6f" transform="translate(1871.191406 0)"/>
     <use xlink:href="#DejaVuSerif-64" transform="translate(1931.396484 0)"/>
     <use xlink:href="#DejaVuSerif-69" transform="translate(1995.410156 0)"/>
     <use xlink:href="#DejaVuSerif-6e" transform="translate(2027.392578 0)"/>
     <use xlink:href="#DejaVuSerif-67" transform="translate(2091.796875 0)"/>
     <use xlink:href="#DejaVuSerif-20" transform="translate(2155.810547 0)"/>
     <use xlink:href="#DejaVuSerif-71" transform="translate(2187.597656 0)"/>
     <use xlink:href="#DejaVuSerif-75" transform="translate(2251.611328 0)"/>
     <use xlink:href="#DejaVuSerif-61" transform="translate(2316.015625 0)"/>
     <use xlink:href="#DejaVuSerif-6c" transform="translate(2375.634766 0)"/>
     <use xlink:href="#DejaVuSerif-69" transform="translate(2407.617188 0)"/>
     <use xlink:href="#DejaVuSerif-74" transform="translate(2439.599609 0)"/>
     <use xlink:href="#DejaVuSerif-79" transform="translate(2479.785156 0)"/>
    </g>
   </g>
   <g id="PathCollection_1">
    <defs>
     <path id="m05f22005a6" d="M 0 3.082207 
C 0.817411 3.082207 1.601453 2.757446 2.179449 2.179449 
C 2.757446 1.601453 3.082207 0.817411 3.082207 0 
C 3.082207 -0.817411 2.757446 -1.601453 2.179449 -2.179449 
C 1.601453 -2.757446 0.817411 -3.082207 0 -3.082207 
C -0.817411 -3.082207 -1.601453 -2.757446 -2.179449 -2.179449 
C -2.757446 -1.601453 -3.082207 -0.817411 -3.082207 0 
C -3.082207 0.817411 -2.757446 1.601453 -2.179449 2.179449 
C -1.601453 2.757446 -0.817411 3.082207 0 3.082207 
z
" style="stroke: #555555; stroke-width: 1.2"/>
    </defs>
    <g clip-path="url(#pdf7afcd762)">
     <use xlink:href="#m05f22005a6" x="122.06643" y="118.183309" style="fill: #ffffff; stroke: #555555; stroke-width: 1.2"/>
    </g>
   </g>
   <g id="PathCollection_2">
    <defs>
     <path id="maa922e440f" d="M 0 2.915476 
C 0.773193 2.915476 1.514823 2.608283 2.061553 2.061553 
C 2.608283 1.514823 2.915476 0.773193 2.915476 0 
C 2.915476 -0.773193 2.608283 -1.514823 2.061553 -2.061553 
C 1.514823 -2.608283 0.773193 -2.915476 0 -2.915476 
C -0.773193 -2.915476 -1.514823 -2.608283 -2.061553 -2.061553 
C -2.608283 -1.514823 -2.915476 -0.773193 -2.915476 0 
C -2.915476 0.773193 -2.608283 1.514823 -2.061553 2.061553 
C -1.514823 2.608283 -0.773193 2.915476 0 2.915476 
z
" style="stroke: #117733; stroke-width: 1.4"/>
    </defs>
    <g clip-path="url(#pdf7afcd762)">
     <use xlink:href="#maa922e440f" x="122.06643" y="62.454632" style="fill: #ffffff; stroke: #117733; stroke-width: 1.4"/>
    </g>
   </g>
   <g id="PathCollection_3">
    <defs>
     <path id="m69c6bdb20c" d="M 0 2.915476 
C 0.773193 2.915476 1.514823 2.608283 2.061553 2.061553 
C 2.608283 1.514823 2.915476 0.773193 2.915476 0 
C 2.915476 -0.773193 2.608283 -1.514823 2.061553 -2.061553 
C 1.514823 -2.608283 0.773193 -2.915476 0 -2.915476 
C -0.773193 -2.915476 -1.514823 -2.608283 -2.061553 -2.061553 
C -2.608283 -1.514823 -2.915476 -0.773193 -2.915476 0 
C -2.915476 0.773193 -2.608283 1.514823 -2.061553 2.061553 
C -1.514823 2.608283 -0.773193 2.915476 0 2.915476 
z
" style="stroke: #332288; stroke-width: 1.4"/>
    </defs>
    <g clip-path="url(#pdf7afcd762)">
     <use xlink:href="#m69c6bdb20c" x="226.59465" y="118.183309" style="fill: #ffffff; stroke: #332288; stroke-width: 1.4"/>
    </g>
   </g>
   <g id="PathCollection_4">
    <defs>
     <path id="m90a6d9b91b" d="M 0 2.915476 
C 0.773193 2.915476 1.514823 2.608283 2.061553 2.061553 
C 2.608283 1.514823 2.915476 0.773193 2.915476 0 
C 2.915476 -0.773193 2.608283 -1.514823 2.061553 -2.061553 
C 1.514823 -2.608283 0.773193 -2.915476 0 -2.915476 
C -0.773193 -2.915476 -1.514823 -2.608283 -2.061553 -2.061553 
C -2.608283 -1.514823 -2.915476 -0.773193 -2.915476 0 
C -2.915476 0.773193 -2.608283 1.514823 -2.061553 2.061553 
C -1.514823 2.608283 -0.773193 2.915476 0 2.915476 
z
" style="stroke: #cc6677; stroke-width: 1.4"/>
    </defs>
    <g clip-path="url(#pdf7afcd762)">
     <use xlink:href="#m90a6d9b91b" x="474.571888" y="279.011851" style="fill: #ffffff; stroke: #cc6677; stroke-width: 1.4"/>
    </g>
   </g>
  </g>
  <g id="text_20">
   <!-- Schematic values, not measured data. The geometry encodes the argument: -->
   <g style="fill: #555555" transform="translate(33.857344 372.972281) scale(0.09 -0.09)">
    <defs>
     <path id="DejaVuSerif-53" d="M 594 225 
L 594 1288 
L 953 1284 
Q 969 753 1261 498 
Q 1553 244 2150 244 
Q 2706 244 2998 464 
Q 3291 684 3291 1106 
Q 3291 1444 3114 1625 
Q 2938 1806 2369 1978 
L 1753 2163 
Q 1084 2366 811 2669 
Q 538 2972 538 3500 
Q 538 4094 959 4422 
Q 1381 4750 2144 4750 
Q 2469 4750 2856 4679 
Q 3244 4609 3681 4475 
L 3681 3481 
L 3328 3481 
Q 3275 3975 2998 4195 
Q 2722 4416 2156 4416 
Q 1663 4416 1405 4214 
Q 1147 4013 1147 3628 
Q 1147 3294 1340 3103 
Q 1534 2913 2163 2725 
L 2741 2553 
Q 3375 2363 3645 2067 
Q 3916 1772 3916 1275 
Q 3916 597 3481 253 
Q 3047 -91 2188 -91 
Q 1803 -91 1404 -12 
Q 1006 66 594 225 
z
" transform="scale(0.015625)"/>
     <path id="DejaVuSerif-54" d="M 1222 0 
L 1222 331 
L 1819 331 
L 1819 4294 
L 447 4294 
L 447 3566 
L 63 3566 
L 63 4666 
L 4206 4666 
L 4206 3566 
L 3822 3566 
L 3822 4294 
L 2450 4294 
L 2450 331 
L 3047 331 
L 3047 0 
L 1222 0 
z
" transform="scale(0.015625)"/>
     <path id="DejaVuSerif-3a" d="M 666 325 
Q 666 500 786 622 
Q 906 744 1081 744 
Q 1256 744 1376 622 
Q 1497 500 1497 325 
Q 1497 150 1378 29 
Q 1259 -91 1081 -91 
Q 903 -91 784 29 
Q 666 150 666 325 
z
M 666 2363 
Q 666 2538 786 2658 
Q 906 2778 1081 2778 
Q 1259 2778 1378 2659 
Q 1497 2541 1497 2363 
Q 1497 2184 1378 2065 
Q 1259 1947 1081 1947 
Q 906 1947 786 2067 
Q 666 2188 666 2363 
z
" transform="scale(0.015625)"/>
    </defs>
    <use xlink:href="#DejaVuSerif-53"/>
    <use xlink:href="#DejaVuSerif-63" transform="translate(68.505859 0)"/>
    <use xlink:href="#DejaVuSerif-68" transform="translate(124.511719 0)"/>
    <use xlink:href="#DejaVuSerif-65" transform="translate(188.916016 0)"/>
    <use xlink:href="#DejaVuSerif-6d" transform="translate(248.095703 0)"/>
    <use xlink:href="#DejaVuSerif-61" transform="translate(342.919922 0)"/>
    <use xlink:href="#DejaVuSerif-74" transform="translate(402.539062 0)"/>
    <use xlink:href="#DejaVuSerif-69" transform="translate(442.724609 0)"/>
    <use xlink:href="#DejaVuSerif-63" transform="translate(474.707031 0)"/>
    <use xlink:href="#DejaVuSerif-20" transform="translate(530.712891 0)"/>
    <use xlink:href="#DejaVuSerif-76" transform="translate(562.5 0)"/>
    <use xlink:href="#DejaVuSerif-61" transform="translate(618.994141 0)"/>
    <use xlink:href="#DejaVuSerif-6c" transform="translate(678.613281 0)"/>
    <use xlink:href="#DejaVuSerif-75" transform="translate(710.595703 0)"/>
    <use xlink:href="#DejaVuSerif-65" transform="translate(775 0)"/>
    <use xlink:href="#DejaVuSerif-73" transform="translate(834.179688 0)"/>
    <use xlink:href="#DejaVuSerif-2c" transform="translate(885.498047 0)"/>
    <use xlink:href="#DejaVuSerif-20" transform="translate(917.285156 0)"/>
    <use xlink:href="#DejaVuSerif-6e" transform="translate(949.072266 0)"/>
    <use xlink:href="#DejaVuSerif-6f" transform="translate(1013.476562 0)"/>
    <use xlink:href="#DejaVuSerif-74" transform="translate(1073.681641 0)"/>
    <use xlink:href="#DejaVuSerif-20" transform="translate(1113.867188 0)"/>
    <use xlink:href="#DejaVuSerif-6d" transform="translate(1145.654297 0)"/>
    <use xlink:href="#DejaVuSerif-65" transform="translate(1240.478516 0)"/>
    <use xlink:href="#DejaVuSerif-61" transform="translate(1299.658203 0)"/>
    <use xlink:href="#DejaVuSerif-73" transform="translate(1359.277344 0)"/>
    <use xlink:href="#DejaVuSerif-75" transform="translate(1410.595703 0)"/>
    <use xlink:href="#DejaVuSerif-72" transform="translate(1475 0)"/>
    <use xlink:href="#DejaVuSerif-65" transform="translate(1522.802734 0)"/>
    <use xlink:href="#DejaVuSerif-64" transform="translate(1581.982422 0)"/>
    <use xlink:href="#DejaVuSerif-20" transform="translate(1645.996094 0)"/>
    <use xlink:href="#DejaVuSerif-64" transform="translate(1677.783203 0)"/>
    <use xlink:href="#DejaVuSerif-61" transform="translate(1741.796875 0)"/>
    <use xlink:href="#DejaVuSerif-74" transform="translate(1801.416016 0)"/>
    <use xlink:href="#DejaVuSerif-61" transform="translate(1841.601562 0)"/>
    <use xlink:href="#DejaVuSerif-2e" transform="translate(1901.220703 0)"/>
    <use xlink:href="#DejaVuSerif-20" transform="translate(1933.007812 0)"/>
    <use xlink:href="#DejaVuSerif-54" transform="translate(1964.794922 0)"/>
    <use xlink:href="#DejaVuSerif-68" transform="translate(2031.494141 0)"/>
    <use xlink:href="#DejaVuSerif-65" transform="translate(2095.898438 0)"/>
    <use xlink:href="#DejaVuSerif-20" transform="translate(2155.078125 0)"/>
    <use xlink:href="#DejaVuSerif-67" transform="translate(2186.865234 0)"/>
    <use xlink:href="#DejaVuSerif-65" transform="translate(2250.878906 0)"/>
    <use xlink:href="#DejaVuSerif-6f" transform="translate(2310.058594 0)"/>
    <use xlink:href="#DejaVuSerif-6d" transform="translate(2370.263672 0)"/>
    <use xlink:href="#DejaVuSerif-65" transform="translate(2465.087891 0)"/>
    <use xlink:href="#DejaVuSerif-74" transform="translate(2524.267578 0)"/>
    <use xlink:href="#DejaVuSerif-72" transform="translate(2564.453125 0)"/>
    <use xlink:href="#DejaVuSerif-79" transform="translate(2612.255859 0)"/>
    <use xlink:href="#DejaVuSerif-20" transform="translate(2668.75 0)"/>
    <use xlink:href="#DejaVuSerif-65" transform="translate(2700.537109 0)"/>
    <use xlink:href="#DejaVuSerif-6e" transform="translate(2759.716797 0)"/>
    <use xlink:href="#DejaVuSerif-63" transform="translate(2824.121094 0)"/>
    <use xlink:href="#DejaVuSerif-6f" transform="translate(2880.126953 0)"/>
    <use xlink:href="#DejaVuSerif-64" transform="translate(2940.332031 0)"/>
    <use xlink:href="#DejaVuSerif-65" transform="translate(3004.345703 0)"/>
    <use xlink:href="#DejaVuSerif-73" transform="translate(3063.525391 0)"/>
    <use xlink:href="#DejaVuSerif-20" transform="translate(3114.84375 0)"/>
    <use xlink:href="#DejaVuSerif-74" transform="translate(3146.630859 0)"/>
    <use xlink:href="#DejaVuSerif-68" transform="translate(3186.816406 0)"/>
    <use xlink:href="#DejaVuSerif-65" transform="translate(3251.220703 0)"/>
    <use xlink:href="#DejaVuSerif-20" transform="translate(3310.400391 0)"/>
    <use xlink:href="#DejaVuSerif-61" transform="translate(3342.1875 0)"/>
    <use xlink:href="#DejaVuSerif-72" transform="translate(3401.806641 0)"/>
    <use xlink:href="#DejaVuSerif-67" transform="translate(3449.609375 0)"/>
    <use xlink:href="#DejaVuSerif-75" transform="translate(3513.623047 0)"/>
    <use xlink:href="#DejaVuSerif-6d" transform="translate(3578.027344 0)"/>
    <use xlink:href="#DejaVuSerif-65" transform="translate(3672.851562 0)"/>
    <use xlink:href="#DejaVuSerif-6e" transform="translate(3732.03125 0)"/>
    <use xlink:href="#DejaVuSerif-74" transform="translate(3796.435547 0)"/>
    <use xlink:href="#DejaVuSerif-3a" transform="translate(3836.621094 0)"/>
   </g>
   <!-- the quality ceiling barely moves, output can jump 5x or more, and very high output can degrade quality further. -->
   <g style="fill: #555555" transform="translate(33.857344 383.178281) scale(0.09 -0.09)">
    <defs>
     <path id="DejaVuSerif-6a" d="M 641 4353 
Q 641 4497 745 4603 
Q 850 4709 997 4709 
Q 1141 4709 1245 4603 
Q 1350 4497 1350 4353 
Q 1350 4206 1248 4103 
Q 1147 4000 997 4000 
Q 850 4000 745 4103 
Q 641 4206 641 4353 
z
M 781 2988 
L 238 2988 
L 238 3322 
L 1356 3322 
L 1356 -325 
Q 1356 -838 1051 -1130 
Q 747 -1422 213 -1422 
Q -13 -1422 -217 -1370 
Q -422 -1319 -616 -1216 
L -616 -531 
L -319 -531 
Q -297 -831 -164 -972 
Q -31 -1113 225 -1113 
Q 509 -1113 645 -920 
Q 781 -728 781 -325 
L 781 2988 
z
" transform="scale(0.015625)"/>
    </defs>
    <use xlink:href="#DejaVuSerif-74"/>
    <use xlink:href="#DejaVuSerif-68" transform="translate(40.185547 0)"/>
    <use xlink:href="#DejaVuSerif-65" transform="translate(104.589844 0)"/>
    <use xlink:href="#DejaVuSerif-20" transform="translate(163.769531 0)"/>
    <use xlink:href="#DejaVuSerif-71" transform="translate(195.556641 0)"/>
    <use xlink:href="#DejaVuSerif-75" transform="translate(259.570312 0)"/>
    <use xlink:href="#DejaVuSerif-61" transform="translate(323.974609 0)"/>
    <use xlink:href="#DejaVuSerif-6c" transform="translate(383.59375 0)"/>
    <use xlink:href="#DejaVuSerif-69" transform="translate(415.576172 0)"/>
    <use xlink:href="#DejaVuSerif-74" transform="translate(447.558594 0)"/>
    <use xlink:href="#DejaVuSerif-79" transform="translate(487.744141 0)"/>
    <use xlink:href="#DejaVuSerif-20" transform="translate(544.238281 0)"/>
    <use xlink:href="#DejaVuSerif-63" transform="translate(576.025391 0)"/>
    <use xlink:href="#DejaVuSerif-65" transform="translate(632.03125 0)"/>
    <use xlink:href="#DejaVuSerif-69" transform="translate(691.210938 0)"/>
    <use xlink:href="#DejaVuSerif-6c" transform="translate(723.193359 0)"/>
    <use xlink:href="#DejaVuSerif-69" transform="translate(755.175781 0)"/>
    <use xlink:href="#DejaVuSerif-6e" transform="translate(787.158203 0)"/>
    <use xlink:href="#DejaVuSerif-67" transform="translate(851.5625 0)"/>
    <use xlink:href="#DejaVuSerif-20" transform="translate(915.576172 0)"/>
    <use xlink:href="#DejaVuSerif-62" transform="translate(947.363281 0)"/>
    <use xlink:href="#DejaVuSerif-61" transform="translate(1011.376953 0)"/>
    <use xlink:href="#DejaVuSerif-72" transform="translate(1070.996094 0)"/>
    <use xlink:href="#DejaVuSerif-65" transform="translate(1118.798828 0)"/>
    <use xlink:href="#DejaVuSerif-6c" transform="translate(1177.978516 0)"/>
    <use xlink:href="#DejaVuSerif-79" transform="translate(1209.960938 0)"/>
    <use xlink:href="#DejaVuSerif-20" transform="translate(1266.455078 0)"/>
    <use xlink:href="#DejaVuSerif-6d" transform="translate(1298.242188 0)"/>
    <use xlink:href="#DejaVuSerif-6f" transform="translate(1393.066406 0)"/>
    <use xlink:href="#DejaVuSerif-76" transform="translate(1453.271484 0)"/>
    <use xlink:href="#DejaVuSerif-65" transform="translate(1509.765625 0)"/>
    <use xlink:href="#DejaVuSerif-73" transform="translate(1568.945312 0)"/>
    <use xlink:href="#DejaVuSerif-2c" transform="translate(1620.263672 0)"/>
    <use xlink:href="#DejaVuSerif-20" transform="translate(1652.050781 0)"/>
    <use xlink:href="#DejaVuSerif-6f" transform="translate(1683.837891 0)"/>
    <use xlink:href="#DejaVuSerif-75" transform="translate(1744.042969 0)"/>
    <use xlink:href="#DejaVuSerif-74" transform="translate(1808.447266 0)"/>
    <use xlink:href="#DejaVuSerif-70" transform="translate(1848.632812 0)"/>
    <use xlink:href="#DejaVuSerif-75" transform="translate(1912.646484 0)"/>
    <use xlink:href="#DejaVuSerif-74" transform="translate(1977.050781 0)"/>
    <use xlink:href="#DejaVuSerif-20" transform="translate(2017.236328 0)"/>
    <use xlink:href="#DejaVuSerif-63" transform="translate(2049.023438 0)"/>
    <use xlink:href="#DejaVuSerif-61" transform="translate(2105.029297 0)"/>
    <use xlink:href="#DejaVuSerif-6e" transform="translate(2164.648438 0)"/>
    <use xlink:href="#DejaVuSerif-20" transform="translate(2229.052734 0)"/>
    <use xlink:href="#DejaVuSerif-6a" transform="translate(2260.839844 0)"/>
    <use xlink:href="#DejaVuSerif-75" transform="translate(2291.845703 0)"/>
    <use xlink:href="#DejaVuSerif-6d" transform="translate(2356.25 0)"/>
    <use xlink:href="#DejaVuSerif-70" transform="translate(2451.074219 0)"/>
    <use xlink:href="#DejaVuSerif-20" transform="translate(2515.087891 0)"/>
    <use xlink:href="#DejaVuSerif-35" transform="translate(2546.875 0)"/>
    <use xlink:href="#DejaVuSerif-78" transform="translate(2610.498047 0)"/>
    <use xlink:href="#DejaVuSerif-20" transform="translate(2666.894531 0)"/>
    <use xlink:href="#DejaVuSerif-6f" transform="translate(2698.681641 0)"/>
    <use xlink:href="#DejaVuSerif-72" transform="translate(2758.886719 0)"/>
    <use xlink:href="#DejaVuSerif-20" transform="translate(2806.689453 0)"/>
    <use xlink:href="#DejaVuSerif-6d" transform="translate(2838.476562 0)"/>
    <use xlink:href="#DejaVuSerif-6f" transform="translate(2933.300781 0)"/>
    <use xlink:href="#DejaVuSerif-72" transform="translate(2993.505859 0)"/>
    <use xlink:href="#DejaVuSerif-65" transform="translate(3041.308594 0)"/>
    <use xlink:href="#DejaVuSerif-2c" transform="translate(3100.488281 0)"/>
    <use xlink:href="#DejaVuSerif-20" transform="translate(3132.275391 0)"/>
    <use xlink:href="#DejaVuSerif-61" transform="translate(3164.0625 0)"/>
    <use xlink:href="#DejaVuSerif-6e" transform="translate(3223.681641 0)"/>
    <use xlink:href="#DejaVuSerif-64" transform="translate(3288.085938 0)"/>
    <use xlink:href="#DejaVuSerif-20" transform="translate(3352.099609 0)"/>
    <use xlink:href="#DejaVuSerif-76" transform="translate(3383.886719 0)"/>
    <use xlink:href="#DejaVuSerif-65" transform="translate(3440.380859 0)"/>
    <use xlink:href="#DejaVuSerif-72" transform="translate(3499.560547 0)"/>
    <use xlink:href="#DejaVuSerif-79" transform="translate(3547.363281 0)"/>
    <use xlink:href="#DejaVuSerif-20" transform="translate(3603.857422 0)"/>
    <use xlink:href="#DejaVuSerif-68" transform="translate(3635.644531 0)"/>
    <use xlink:href="#DejaVuSerif-69" transform="translate(3700.048828 0)"/>
    <use xlink:href="#DejaVuSerif-67" transform="translate(3732.03125 0)"/>
    <use xlink:href="#DejaVuSerif-68" transform="translate(3796.044922 0)"/>
    <use xlink:href="#DejaVuSerif-20" transform="translate(3860.449219 0)"/>
    <use xlink:href="#DejaVuSerif-6f" transform="translate(3892.236328 0)"/>
    <use xlink:href="#DejaVuSerif-75" transform="translate(3952.441406 0)"/>
    <use xlink:href="#DejaVuSerif-74" transform="translate(4016.845703 0)"/>
    <use xlink:href="#DejaVuSerif-70" transform="translate(4057.03125 0)"/>
    <use xlink:href="#DejaVuSerif-75" transform="translate(4121.044922 0)"/>
    <use xlink:href="#DejaVuSerif-74" transform="translate(4185.449219 0)"/>
    <use xlink:href="#DejaVuSerif-20" transform="translate(4225.634766 0)"/>
    <use xlink:href="#DejaVuSerif-63" transform="translate(4257.421875 0)"/>
    <use xlink:href="#DejaVuSerif-61" transform="translate(4313.427734 0)"/>
    <use xlink:href="#DejaVuSerif-6e" transform="translate(4373.046875 0)"/>
    <use xlink:href="#DejaVuSerif-20" transform="translate(4437.451172 0)"/>
    <use xlink:href="#DejaVuSerif-64" transform="translate(4469.238281 0)"/>
    <use xlink:href="#DejaVuSerif-65" transform="translate(4533.251953 0)"/>
    <use xlink:href="#DejaVuSerif-67" transform="translate(4592.431641 0)"/>
    <use xlink:href="#DejaVuSerif-72" transform="translate(4656.445312 0)"/>
    <use xlink:href="#DejaVuSerif-61" transform="translate(4704.248047 0)"/>
    <use xlink:href="#DejaVuSerif-64" transform="translate(4763.867188 0)"/>
    <use xlink:href="#DejaVuSerif-65" transform="translate(4827.880859 0)"/>
    <use xlink:href="#DejaVuSerif-20" transform="translate(4887.060547 0)"/>
    <use xlink:href="#DejaVuSerif-71" transform="translate(4918.847656 0)"/>
    <use xlink:href="#DejaVuSerif-75" transform="translate(4982.861328 0)"/>
    <use xlink:href="#DejaVuSerif-61" transform="translate(5047.265625 0)"/>
    <use xlink:href="#DejaVuSerif-6c" transform="translate(5106.884766 0)"/>
    <use xlink:href="#DejaVuSerif-69" transform="translate(5138.867188 0)"/>
    <use xlink:href="#DejaVuSerif-74" transform="translate(5170.849609 0)"/>
    <use xlink:href="#DejaVuSerif-79" transform="translate(5211.035156 0)"/>
    <use xlink:href="#DejaVuSerif-20" transform="translate(5267.529297 0)"/>
    <use xlink:href="#DejaVuSerif-66" transform="translate(5299.316406 0)"/>
    <use xlink:href="#DejaVuSerif-75" transform="translate(5336.328125 0)"/>
    <use xlink:href="#DejaVuSerif-72" transform="translate(5400.732422 0)"/>
    <use xlink:href="#DejaVuSerif-74" transform="translate(5448.535156 0)"/>
    <use xlink:href="#DejaVuSerif-68" transform="translate(5488.720703 0)"/>
    <use xlink:href="#DejaVuSerif-65" transform="translate(5553.125 0)"/>
    <use xlink:href="#DejaVuSerif-72" transform="translate(5612.304688 0)"/>
    <use xlink:href="#DejaVuSerif-2e" transform="translate(5649.107422 0)"/>
   </g>
  </g>
 </g>
 <defs>
  <clipPath id="pdf7afcd762">
   <rect x="39.815156" y="31.077969" width="571.842188" height="286.646687"/>
  </clipPath>
 </defs>
</svg>
